<svg width="149" height="28" viewBox="0 0 149 28" fill="none" xmlns="http://www.w3.org/2000/svg">
<circle cx="14.5253" cy="14" r="14" fill="white"/>
<circle cx="14.5253" cy="14" r="13.5" stroke="black" stroke-opacity="0.2"/>
<path d="M20.7324 10.9831C20.3134 11.1693 19.8711 11.2857 19.4055 11.3556C19.8711 11.0762 20.2435 10.6339 20.4065 10.0985C19.9642 10.3546 19.4753 10.5408 18.9399 10.6572C18.5209 10.2149 17.9156 9.93555 17.2638 9.93555C16.0068 9.93555 14.9825 10.9598 14.9825 12.2169C14.9825 12.4031 15.0058 12.5661 15.0523 12.729C13.1667 12.6359 11.4674 11.728 10.3267 10.3313C10.1404 10.6805 10.0241 11.0529 10.0241 11.472C10.0241 12.2634 10.4198 12.9618 11.0483 13.3808C10.6759 13.3576 10.3267 13.2644 10.0008 13.1015V13.1248C10.0008 14.2422 10.7923 15.1733 11.8398 15.3828C11.6536 15.4294 11.4441 15.4527 11.2346 15.4527C11.0949 15.4527 10.9319 15.4294 10.7923 15.4061C11.0949 16.314 11.9329 16.9891 12.9339 16.9891C12.1424 17.5943 11.1647 17.9668 10.0939 17.9668C9.90766 17.9668 9.72142 17.9668 9.55847 17.9435C10.5827 18.5953 11.77 18.9678 13.0736 18.9678C17.2871 18.9678 19.5917 15.476 19.5917 12.4497C19.5917 12.3566 19.5917 12.2402 19.5917 12.1471C20.034 11.8444 20.4298 11.4487 20.7324 10.9831Z" fill="black"/>
<circle cx="54.5253" cy="14" r="14" fill="#E0A449"/>
<path d="M53.234 20.3038V14.7503H51.3651V12.5859H53.234V10.9898C53.234 9.13752 54.3653 8.12891 56.0177 8.12891C56.8092 8.12891 57.4895 8.18784 57.6877 8.21417V10.1499L56.5417 10.1505C55.643 10.1505 55.469 10.5775 55.469 11.2041V12.5859H57.6122L57.3332 14.7503H55.469V20.3038H53.234Z" fill="white"/>
<circle cx="94.5253" cy="14" r="14" fill="white"/>
<circle cx="94.5253" cy="14" r="13.5" stroke="black" stroke-opacity="0.2"/>
<path d="M94.526 8.44721C96.3347 8.44721 96.5489 8.45398 97.2634 8.48656C97.693 8.49182 98.1186 8.5707 98.5215 8.71979C98.8137 8.83248 99.0791 9.00511 99.3005 9.22656C99.522 9.44802 99.6946 9.71339 99.8073 10.0056C99.9564 10.4085 100.035 10.8341 100.041 11.2637C100.073 11.9782 100.08 12.1924 100.08 14.0011C100.08 15.8098 100.073 16.024 100.041 16.7385C100.035 17.1681 99.9564 17.5936 99.8073 17.9966C99.6946 18.2888 99.522 18.5541 99.3005 18.7756C99.0791 18.997 98.8137 19.1697 98.5215 19.2824C98.1186 19.4315 97.693 19.5103 97.2634 19.5156C96.5493 19.5479 96.3351 19.5549 94.526 19.5549C92.717 19.5549 92.5028 19.5482 91.7886 19.5156C91.359 19.5103 90.9335 19.4315 90.5305 19.2824C90.2383 19.1697 89.973 18.997 89.7515 18.7756C89.5301 18.5541 89.3574 18.2888 89.2447 17.9966C89.0957 17.5936 89.0168 17.1681 89.0115 16.7385C88.9793 16.024 88.9722 15.8098 88.9722 14.0011C88.9722 12.1924 88.9789 11.9782 89.0115 11.2637C89.0168 10.8341 89.0957 10.4085 89.2447 10.0056C89.3574 9.71339 89.5301 9.44802 89.7515 9.22656C89.973 9.00511 90.2383 8.83248 90.5305 8.71979C90.9335 8.5707 91.359 8.49182 91.7886 8.48656C92.5031 8.4543 92.7173 8.44721 94.526 8.44721ZM94.526 7.22656C92.6873 7.22656 92.4557 7.2343 91.7331 7.26721C91.1709 7.27839 90.6146 7.38485 90.088 7.58205C89.6362 7.75226 89.227 8.019 88.8889 8.36366C88.544 8.70184 88.277 9.11127 88.1067 9.56334C87.9095 10.09 87.803 10.6463 87.7918 11.2085C87.7596 11.9304 87.7518 12.162 87.7518 14.0008C87.7518 15.8395 87.7596 16.0711 87.7925 16.7937C87.8037 17.3559 87.9101 17.9122 88.1073 18.4388C88.2774 18.8908 88.5442 19.3002 88.8889 19.6385C89.2272 19.9832 89.6366 20.25 90.0886 20.4201C90.6152 20.6173 91.1715 20.7238 91.7338 20.7349C92.4563 20.7672 92.687 20.7756 94.5267 20.7756C96.3663 20.7756 96.597 20.7679 97.3196 20.7349C97.8818 20.7238 98.4381 20.6173 98.9647 20.4201C99.4146 20.2457 99.8231 19.9794 100.164 19.6381C100.505 19.2968 100.771 18.8882 100.945 18.4382C101.143 17.9115 101.249 17.3553 101.26 16.793C101.292 16.0711 101.3 15.8395 101.3 14.0008C101.3 12.162 101.292 11.9304 101.26 11.2079C101.248 10.6456 101.142 10.0893 100.945 9.56269C100.775 9.11068 100.508 8.70126 100.163 8.36301C99.8249 8.01828 99.4155 7.75153 98.9634 7.5814C98.4368 7.3842 97.8805 7.27775 97.3183 7.26656C96.5963 7.2343 96.3647 7.22656 94.526 7.22656Z" fill="black"/>
<path d="M94.5274 10.5234C93.8394 10.5234 93.1668 10.7275 92.5947 11.1097C92.0227 11.492 91.5768 12.0353 91.3135 12.6709C91.0502 13.3066 90.9813 14.006 91.1155 14.6808C91.2498 15.3556 91.5811 15.9755 92.0676 16.462C92.5541 16.9485 93.174 17.2798 93.8488 17.414C94.5236 17.5482 95.223 17.4794 95.8587 17.2161C96.4943 16.9528 97.0376 16.5069 97.4199 15.9348C97.8021 15.3627 98.0061 14.6902 98.0061 14.0021C98.0061 13.0795 97.6396 12.1947 96.9872 11.5423C96.3349 10.8899 95.45 10.5234 94.5274 10.5234ZM94.5274 16.2602C94.0808 16.2602 93.6442 16.1278 93.2729 15.8797C92.9016 15.6315 92.6121 15.2789 92.4412 14.8663C92.2703 14.4537 92.2256 13.9996 92.3127 13.5616C92.3999 13.1236 92.6149 12.7213 92.9307 12.4055C93.2465 12.0897 93.6489 11.8746 94.0869 11.7875C94.5249 11.7003 94.9789 11.7451 95.3915 11.916C95.8041 12.0869 96.1568 12.3763 96.4049 12.7476C96.653 13.119 96.7855 13.5555 96.7855 14.0021C96.7855 14.601 96.5476 15.1754 96.1241 15.5988C95.7006 16.0223 95.1263 16.2602 94.5274 16.2602Z" fill="black"/>
<path d="M98.1429 11.1981C98.5918 11.1981 98.9558 10.8341 98.9558 10.3852C98.9558 9.93621 98.5918 9.57227 98.1429 9.57227C97.6939 9.57227 97.33 9.93621 97.33 10.3852C97.33 10.8341 97.6939 11.1981 98.1429 11.1981Z" fill="black"/>
<circle cx="134.525" cy="14" r="14" fill="white"/>
<circle cx="134.525" cy="14" r="13.5" stroke="black" stroke-opacity="0.2"/>
<path fill-rule="evenodd" clip-rule="evenodd" d="M135.132 7.22656C131.541 7.22656 128.652 10.1155 128.652 13.7065C128.652 16.5684 130.515 18.9984 133.08 19.8624C133.404 19.9164 133.512 19.7274 133.512 19.5384C133.512 19.3764 133.512 18.9714 133.512 18.4314C131.703 18.8364 131.325 17.5674 131.325 17.5674C131.028 16.8114 130.596 16.6224 130.596 16.6224C130.002 16.2174 130.65 16.2174 130.65 16.2174C131.298 16.2714 131.649 16.8924 131.649 16.8924C132.216 17.8914 133.161 17.5944 133.539 17.4324C133.593 17.0004 133.755 16.7304 133.944 16.5684C132.513 16.4064 131.001 15.8394 131.001 13.3555C131.001 12.6535 131.244 12.0595 131.676 11.6275C131.622 11.4655 131.379 10.8175 131.73 9.89952C131.73 9.89952 132.27 9.73752 133.512 10.5745C134.025 10.4395 134.592 10.3585 135.132 10.3585C135.672 10.3585 136.239 10.4395 136.752 10.5745C137.994 9.73752 138.534 9.89952 138.534 9.89952C138.885 10.7905 138.669 11.4385 138.588 11.6275C138.993 12.0865 139.263 12.6535 139.263 13.3555C139.263 15.8394 137.751 16.3794 136.293 16.5414C136.536 16.7304 136.725 17.1354 136.725 17.7294C136.725 18.5934 136.725 19.2954 136.725 19.5114C136.725 19.6734 136.833 19.8894 137.184 19.8354C139.749 18.9984 141.612 16.5684 141.612 13.7065C141.612 10.1155 138.723 7.22656 135.132 7.22656Z" fill="black"/>
</svg>
